<?xml version="1.0" standalone="no"?>
<!DOCTYPE svg PUBLIC "-//W3C//DTD SVG 20010904//EN"
 "http://www.w3.org/TR/2001/REC-SVG-20010904/DTD/svg10.dtd">
<svg version="1.0" xmlns="http://www.w3.org/2000/svg"
 width="1126.000000pt" height="942.000000pt" viewBox="0 0 1126.000000 942.000000"
 preserveAspectRatio="xMidYMid meet">

<g transform="translate(0.000000,942.000000) scale(0.100000,-0.100000)"
fill="#000000" stroke="none">
<path d="M6375 9253 c-22 -3 -44 -8 -50 -13 -5 -4 -26 -11 -45 -15 -66 -13
-135 -39 -154 -57 -11 -10 -23 -18 -27 -18 -3 0 -33 -20 -65 -45 -45 -35 -66
-45 -95 -45 -21 0 -41 -4 -44 -10 -3 -5 -34 -10 -69 -10 -39 0 -69 -5 -82 -15
-10 -8 -28 -15 -39 -15 -11 0 -40 -10 -65 -21 -25 -12 -81 -30 -125 -40 -55
-14 -97 -32 -135 -58 -30 -21 -73 -48 -95 -59 -22 -11 -47 -29 -56 -39 -9 -10
-39 -36 -68 -58 -44 -34 -105 -98 -198 -208 -31 -37 -129 -198 -174 -287 -111
-221 -148 -308 -164 -390 -9 -47 -21 -105 -27 -130 -14 -60 -20 -310 -7 -310
5 0 9 -9 9 -20 0 -13 -5 -18 -15 -14 -11 4 -15 -1 -16 -17 -1 -13 -3 -63 -5
-110 -3 -72 -9 -99 -39 -167 -19 -44 -35 -87 -35 -95 0 -8 -7 -20 -15 -27 -8
-7 -15 -24 -15 -37 0 -25 -19 -54 -98 -142 -29 -34 -40 -54 -36 -66 6 -14 3
-16 -12 -11 -13 4 -23 -1 -32 -14 -10 -17 -10 -20 4 -20 35 0 -13 -65 -88
-118 -10 -7 -18 -19 -18 -27 0 -7 -12 -28 -27 -45 -25 -31 -26 -36 -28 -178
-2 -141 -13 -202 -35 -202 -5 0 -10 -11 -10 -25 0 -16 -6 -25 -15 -25 -19 0
-19 -14 -1 -29 13 -11 13 -15 -24 -146 -5 -16 -20 -61 -35 -99 -14 -38 -23
-77 -20 -87 3 -10 1 -29 -6 -41 -24 -45 -57 -228 -41 -228 5 0 12 -23 15 -52
10 -82 40 -96 39 -18 -1 50 14 94 28 85 7 -4 6 -13 -1 -27 -9 -17 -8 -24 5
-33 20 -15 21 -25 1 -25 -17 0 -20 -16 -5 -25 6 -3 7 -17 4 -29 -4 -17 1 -30
16 -44 14 -13 18 -22 11 -27 -6 -3 -11 -31 -11 -61 0 -47 4 -59 27 -80 33 -31
38 -26 16 16 -15 31 -15 36 0 62 9 16 14 34 11 42 -3 7 2 18 10 25 12 10 21 8
45 -10 37 -27 41 -64 10 -72 -21 -6 -20 -8 15 -48 20 -24 36 -50 36 -60 0 -10
3 -24 6 -32 3 -8 -2 -17 -11 -21 -11 -4 -19 2 -25 19 -6 15 -17 25 -30 25 -17
0 -18 -3 -8 -25 6 -14 17 -25 25 -25 7 0 19 -15 27 -32 11 -29 11 -37 -3 -61
-13 -24 -50 -54 -58 -49 -11 7 -23 -1 -23 -14 0 -13 3 -14 14 -5 9 7 17 8 20
2 9 -14 -4 -41 -19 -41 -7 0 -23 -15 -34 -34 -12 -18 -30 -36 -41 -39 -29 -7
-26 -37 4 -37 13 0 29 -6 35 -13 6 -8 23 -12 41 -9 26 4 29 2 24 -14 -4 -11
-14 -27 -22 -37 -19 -22 -7 -35 18 -19 34 21 41 15 34 -29 -9 -52 -33 -100
-72 -139 -17 -17 -37 -46 -43 -65 -7 -19 -21 -37 -31 -41 -10 -3 -18 -15 -18
-28 0 -13 -6 -29 -14 -35 -20 -17 -36 14 -26 50 7 24 5 28 -13 31 -19 3 -22
10 -25 65 -2 51 0 64 15 72 38 22 55 40 48 51 -5 8 -12 7 -23 -3 -10 -8 -31
-14 -49 -14 -53 1 -84 -43 -49 -72 12 -11 29 -109 27 -160 -1 -13 3 -29 8 -35
5 -6 12 -35 16 -64 4 -28 11 -52 16 -52 5 0 9 -7 9 -15 0 -8 -4 -15 -9 -15
-22 0 -16 -37 10 -58 l28 -22 20 22 c12 12 21 25 21 29 0 4 9 5 20 2 11 -3 20
-10 20 -16 0 -6 7 -2 15 9 8 10 15 29 15 42 0 30 28 28 40 -3 10 -26 4 -55
-11 -55 -5 0 -9 -19 -9 -43 0 -23 -6 -51 -14 -62 -17 -26 -30 -125 -16 -125 5
0 10 7 10 15 0 8 7 15 15 15 8 0 15 7 15 15 0 8 10 20 23 26 12 7 33 23 47 37
22 22 25 22 29 7 6 -34 -20 -94 -43 -97 -15 -2 -22 -11 -24 -33 -2 -16 -8 -34
-13 -40 -14 -14 -11 -25 6 -25 18 0 18 -5 2 -51 -15 -44 -36 -71 -49 -63 -5 3
-18 -2 -29 -12 -18 -16 -20 -16 -40 2 -49 43 -57 121 -15 137 9 4 16 14 16 23
0 10 -5 14 -15 11 -22 -9 -25 5 -16 64 5 30 7 56 5 58 -8 9 -44 -33 -44 -51 0
-10 -4 -18 -10 -18 -5 0 -10 -8 -10 -18 0 -10 -6 -24 -12 -31 -11 -10 -9 -12
7 -9 16 2 21 -3 23 -27 3 -33 24 -98 53 -162 13 -30 23 -41 34 -37 10 4 15 0
15 -11 0 -16 43 -65 57 -65 13 0 63 -65 59 -76 -3 -7 2 -18 10 -24 25 -21 16
-47 -23 -67 -46 -24 -58 -49 -19 -39 22 5 28 2 35 -16 l8 -23 7 23 c7 20 12
22 44 16 20 -4 38 -8 40 -9 10 -8 -72 -104 -91 -107 -12 -2 -23 -11 -25 -20
-3 -14 1 -16 15 -11 10 3 25 12 33 19 22 18 70 29 70 15 0 -6 -7 -11 -15 -11
-8 0 -15 -4 -15 -10 0 -5 11 -10 24 -10 25 0 36 -16 36 -56 0 -19 5 -24 25
-24 14 0 25 -4 25 -9 0 -16 -53 -52 -67 -47 -7 3 -23 1 -35 -4 l-23 -9 23 -7
c25 -7 29 -26 8 -43 -10 -8 -16 -9 -21 -1 -9 15 -55 12 -55 -4 0 -7 -7 -27
-15 -42 -8 -16 -15 -37 -15 -46 0 -9 -15 -24 -32 -33 -32 -15 -98 -69 -98 -80
0 -3 11 -5 24 -5 27 0 42 -15 26 -25 -5 -3 -10 -14 -10 -24 0 -10 -6 -24 -14
-30 -7 -6 -11 -22 -9 -34 3 -15 -2 -31 -13 -42 -17 -17 -17 -17 4 -11 26 9 27
4 7 -34 -19 -38 -4 -39 37 -5 36 30 48 31 48 6 0 -11 5 -23 11 -26 6 -4 8 -14
5 -22 -5 -11 1 -14 27 -11 26 2 33 -1 35 -18 2 -14 -6 -27 -23 -38 -25 -17
-26 -17 -8 -48 10 -17 28 -35 40 -41 26 -12 27 -18 11 -64 -13 -36 -28 -44
-28 -15 0 9 -9 28 -20 42 -17 21 -21 23 -30 10 -14 -21 -12 -77 3 -83 6 -2 9
-8 4 -12 -4 -5 -13 0 -20 9 -13 17 -14 16 -26 -13 -11 -25 -11 -34 -1 -46 8
-10 17 -12 24 -6 17 14 50 7 54 -12 4 -17 -24 -77 -36 -77 -8 0 -36 -59 -31
-65 2 -2 13 -5 23 -7 16 -2 22 6 30 39 14 54 23 62 35 29 7 -18 18 -26 34 -26
27 0 62 -33 53 -49 -4 -6 0 -38 8 -73 12 -54 12 -60 0 -44 -8 11 -14 23 -14
28 0 4 -7 8 -15 8 -8 0 -15 -4 -15 -8 0 -5 -10 -8 -22 -8 -18 1 -23 -5 -25
-28 -1 -16 4 -43 11 -61 19 -45 9 -119 -26 -183 -15 -29 -28 -61 -28 -70 0
-10 -11 -29 -25 -42 -27 -26 -25 -37 11 -50 23 -9 57 1 74 21 3 3 13 8 23 12
9 3 17 13 17 22 0 26 19 17 26 -13 10 -42 15 -45 31 -23 20 29 73 29 73 1 0
-11 -6 -20 -12 -20 -8 0 -13 -13 -14 -30 -1 -18 -11 -40 -23 -51 -12 -12 -20
-27 -17 -35 3 -8 1 -14 -5 -14 -6 0 -19 -10 -30 -22 -18 -22 -20 -22 -33 -5
-9 12 -16 14 -21 8 -9 -15 1 -28 26 -34 16 -4 30 4 56 30 27 29 36 34 46 24 9
-10 8 -15 -5 -25 -10 -7 -18 -25 -18 -40 0 -19 -5 -26 -18 -26 -27 0 -59 -37
-45 -51 14 -14 33 -3 33 17 0 8 5 14 10 14 6 0 10 -7 10 -15 0 -8 -4 -15 -10
-15 -5 0 -10 -9 -10 -20 0 -11 7 -20 15 -20 8 0 23 -4 33 -9 9 -5 25 -12 35
-15 22 -7 22 -22 1 -30 -10 -4 -25 1 -35 10 -10 9 -23 13 -28 9 -14 -8 -14
-35 0 -35 6 0 27 -12 46 -27 l36 -28 -6 26 c-6 23 -3 28 17 33 35 9 54 -2 54
-30 0 -29 -14 -32 -23 -4 -6 20 -35 29 -35 10 0 -15 42 -50 60 -50 13 0 16 9
16 34 -1 19 -5 38 -9 42 -12 13 -8 34 8 34 9 0 15 -9 15 -21 0 -11 5 -19 12
-17 26 9 18 29 -17 44 -21 8 -39 24 -42 35 -7 25 -23 25 -23 0 0 -11 -5 -23
-11 -27 -14 -9 -29 15 -21 34 3 10 1 13 -6 8 -8 -5 -12 4 -12 28 0 25 4 36 15
36 10 0 17 14 21 40 4 22 12 40 19 40 7 0 12 7 11 15 -1 17 49 53 60 43 13
-14 6 -81 -10 -90 -24 -14 -19 -33 17 -64 33 -27 44 -63 23 -76 -7 -5 -4 -12
9 -22 27 -21 28 -20 43 14 17 37 42 40 42 5 0 -27 24 -35 34 -10 8 21 23 19
29 -5 6 -23 37 -28 37 -6 0 8 6 17 13 19 9 4 9 8 -2 15 -12 9 -12 13 -2 26 13
15 51 23 51 10 0 -3 -7 -21 -16 -39 -19 -41 -7 -71 34 -82 15 -3 33 -12 40
-20 8 -7 39 -14 75 -15 86 -2 98 0 164 23 32 11 66 23 76 26 14 4 17 -1 17
-30 0 -20 3 -38 8 -40 11 -7 72 22 72 34 0 6 7 9 15 5 8 -3 15 -1 15 4 0 6 7
10 16 10 8 0 20 14 25 30 8 21 17 30 33 30 13 0 31 12 44 30 15 19 31 30 47
30 15 0 31 10 41 25 18 28 77 60 92 51 6 -3 12 3 15 14 6 25 39 26 58 3 8 -10
9 -14 2 -10 -19 12 -28 -15 -9 -28 9 -7 14 -19 11 -27 -5 -12 0 -14 19 -11 31
6 34 -9 6 -28 -19 -13 -20 -18 -9 -69 6 -30 13 -107 15 -170 5 -113 11 -222
18 -310 2 -25 0 -50 -6 -57 -5 -6 -5 -14 0 -17 8 -5 16 -171 14 -268 -1 -15 3
-30 8 -33 5 -3 6 -15 1 -28 -8 -20 -4 -157 5 -166 2 -2 74 -6 161 -9 127 -4
161 -2 170 9 19 25 210 410 245 496 13 33 11 193 -3 209 -5 7 -9 16 -8 20 4
16 -18 58 -39 77 -11 10 -23 31 -27 45 -4 15 -14 42 -22 61 -13 26 -14 40 -6
61 7 19 7 32 1 38 -6 6 -11 32 -13 59 -2 26 -12 69 -24 96 -11 26 -18 54 -15
62 4 8 2 21 -4 28 -5 6 -13 42 -17 79 -4 38 -11 68 -16 68 -5 0 -9 10 -9 22 0
21 1 21 13 3 15 -20 42 -12 33 10 -2 7 1 16 8 18 7 3 19 25 25 50 10 34 17 44
30 40 26 -7 45 21 32 45 -12 22 0 37 33 43 10 2 25 13 32 24 12 18 11 25 -9
53 -12 17 -29 32 -38 32 -25 0 -30 12 -12 32 15 17 14 18 -20 18 -40 0 -50 14
-17 23 16 4 20 14 20 46 0 37 2 41 25 41 14 0 25 4 25 9 0 15 -27 20 -39 8 -8
-8 -14 -8 -22 0 -13 13 -4 33 16 33 7 0 17 9 20 21 5 16 12 19 35 14 16 -3 31
-2 35 5 3 5 33 28 66 50 49 32 65 38 91 33 23 -4 33 -2 40 11 5 9 13 14 17 12
4 -3 15 11 26 29 16 31 19 33 31 18 11 -16 14 -14 34 20 24 41 23 41 67 28 17
-5 35 -5 39 -1 5 5 20 10 34 12 22 3 25 8 27 47 2 53 10 74 23 66 5 -3 16 -3
23 2 18 11 92 18 273 25 44 2 70 -10 56 -24 -7 -7 -12 -20 -12 -30 0 -10 -6
-21 -14 -24 -8 -3 -17 -15 -20 -27 -3 -12 -26 -49 -51 -82 -25 -33 -45 -69
-45 -80 0 -11 -15 -35 -33 -52 -18 -17 -39 -50 -47 -73 -8 -23 -19 -44 -26
-47 -7 -2 -15 -16 -18 -29 -4 -14 -18 -29 -32 -34 -14 -6 -24 -16 -22 -22 6
-26 -72 -202 -98 -224 -7 -5 -20 -30 -30 -55 -9 -24 -26 -54 -37 -66 -12 -13
-16 -26 -11 -35 5 -7 8 -22 9 -33 0 -16 6 -20 35 -19 19 1 29 0 23 -3 -16 -6
-17 -23 -2 -23 15 0 48 42 49 62 0 10 8 25 19 35 30 29 54 90 47 120 -6 26 -5
26 8 10 13 -17 16 -14 45 39 17 31 33 66 36 78 4 11 16 40 28 63 22 44 18 65
-8 43 -12 -10 -15 -10 -15 3 0 10 11 17 33 19 24 2 32 8 32 23 1 12 13 36 27
55 14 19 52 80 84 135 66 115 166 269 199 305 12 14 55 79 95 145 40 66 92
143 115 170 23 28 58 78 79 113 39 64 65 78 73 37 9 -50 7 -134 -4 -147 -10
-11 -9 -19 3 -37 15 -21 15 -24 -5 -37 -28 -20 -28 -54 0 -54 27 0 20 -24 -8
-28 -27 -4 -57 -37 -50 -56 3 -8 22 -18 42 -22 19 -3 37 -10 40 -14 7 -11 -22
-21 -39 -14 -8 3 -23 1 -33 -5 -17 -10 -17 -10 2 -11 12 0 25 -11 32 -26 11
-23 10 -27 -7 -31 -17 -4 -18 -12 -13 -76 6 -87 14 -103 53 -112 16 -4 30 -10
30 -15 0 -4 -8 -6 -19 -3 -14 3 -20 -2 -23 -21 -6 -30 -2 -36 24 -36 11 0 18
-7 18 -18 0 -10 6 -26 13 -37 13 -20 16 -119 4 -131 -12 -12 -37 18 -37 45 0
14 -7 35 -15 45 -8 11 -15 28 -15 38 0 10 -18 48 -40 84 -22 36 -40 74 -40 85
0 10 -7 36 -14 56 -8 21 -20 57 -26 81 -6 23 -15 42 -19 42 -12 0 -11 -52 1
-67 5 -7 8 -18 5 -25 -2 -7 2 -25 9 -40 9 -17 10 -29 4 -33 -13 -8 -13 -45 0
-45 17 0 40 -58 40 -100 0 -28 6 -45 20 -57 21 -18 27 -43 10 -43 -20 0 -9
-29 12 -32 13 -2 28 -16 37 -33 8 -16 18 -38 24 -49 6 -13 5 -21 -4 -26 -6 -5
-9 -17 -6 -30 3 -13 0 -23 -9 -27 -8 -3 -14 -9 -14 -14 0 -4 6 -6 14 -3 8 3
17 1 21 -5 3 -6 13 -11 21 -11 17 0 63 -49 64 -67 0 -7 -5 -13 -11 -13 -5 0
-7 -5 -4 -10 4 -6 15 -8 26 -5 31 10 22 -10 -11 -22 -20 -8 -30 -18 -30 -32 0
-12 -5 -21 -11 -21 -5 0 -7 -4 -4 -10 3 -5 -10 -16 -28 -24 -40 -16 -46 -24
-49 -62 -2 -16 -10 -29 -19 -31 -10 -3 -23 -19 -30 -36 -7 -18 -20 -41 -30
-52 -9 -11 -19 -28 -21 -38 -1 -10 -6 -17 -9 -15 -11 5 -49 -34 -49 -49 0 -18
-17 -16 -28 3 -7 13 -13 14 -31 4 -19 -10 -22 -17 -16 -49 5 -30 2 -41 -14
-56 -12 -10 -21 -23 -21 -30 0 -12 -22 -44 -55 -79 -11 -11 -19 -25 -17 -30 6
-17 -10 -45 -29 -51 -23 -8 -25 -24 -4 -39 22 -16 -1 -75 -33 -83 -18 -4 -22
-11 -20 -32 2 -20 -1 -26 -17 -26 -15 0 -19 -6 -17 -21 2 -15 -7 -29 -28 -44
-26 -18 -30 -27 -25 -47 5 -20 3 -24 -9 -20 -12 5 -16 0 -16 -21 0 -36 -26
-109 -32 -91 -3 8 -9 10 -14 6 -4 -4 -3 -16 3 -26 10 -16 5 -25 -39 -64 -50
-44 -50 -45 -30 -62 20 -17 20 -17 -2 -51 -11 -18 -29 -36 -38 -39 -14 -5 -18
-17 -18 -52 0 -46 0 -46 -20 -28 -29 26 -33 14 -20 -50 11 -54 11 -58 -11 -81
-17 -18 -20 -27 -12 -35 6 -6 9 -18 6 -25 -4 -12 33 -14 218 -16 329 -3 1090
3 1120 8 22 4 28 13 37 55 7 28 12 64 12 80 0 43 18 73 35 59 17 -14 62 -6 87
17 10 9 31 17 46 18 15 0 27 5 27 10 0 11 -34 16 -120 15 -55 0 -58 1 -40 14
23 15 76 17 87 2 4 -6 19 -6 40 0 24 7 34 16 36 34 6 57 14 71 46 87 25 11 32
20 29 34 -4 14 0 19 17 19 12 0 35 11 52 25 16 14 35 25 42 25 16 0 109 108
130 151 9 19 18 50 21 69 2 19 10 48 18 65 28 58 34 90 23 114 -7 16 -6 28 1
41 7 10 9 27 7 37 -5 16 1 21 25 26 23 5 34 15 45 42 8 19 20 35 25 35 6 0 11
6 11 14 0 8 10 32 22 55 17 32 26 39 42 35 19 -4 21 0 22 43 1 26 6 49 11 50
6 2 19 10 29 18 16 12 17 17 7 34 -17 27 -16 41 2 41 8 0 15 -5 15 -11 0 -5 5
-7 11 -3 6 3 8 15 6 26 -4 14 0 22 14 25 25 7 25 33 -1 33 -26 0 -32 17 -22
55 7 26 12 30 39 27 40 -4 49 12 23 38 -25 25 -25 36 0 50 11 6 19 14 18 18
-7 33 27 74 64 77 16 1 21 17 8 26 -13 8 -13 11 3 20 9 5 17 17 17 24 0 8 6
15 13 15 14 -1 47 -24 47 -34 0 -5 10 -16 23 -26 l22 -18 -27 -7 c-38 -10 -35
-21 7 -36 19 -7 35 -18 36 -24 3 -24 -4 -61 -12 -71 -5 -7 -9 -16 -7 -20 4
-17 -14 -100 -29 -132 -11 -25 -20 -33 -33 -29 -23 6 -32 -16 -20 -48 6 -16
15 -23 25 -19 10 4 15 0 15 -10 0 -10 -8 -16 -21 -16 -12 0 -19 -5 -16 -12 2
-7 9 -13 15 -13 23 0 13 -17 -20 -34 -21 -10 -33 -23 -33 -36 0 -11 -6 -24
-12 -28 -7 -4 -13 -18 -13 -31 0 -35 -26 -89 -49 -104 -12 -7 -21 -23 -21 -36
0 -16 -7 -27 -21 -31 -16 -5 -19 -12 -15 -30 5 -18 -1 -29 -21 -45 -16 -12
-29 -33 -30 -47 -1 -15 -7 -31 -13 -37 -5 -5 -10 -18 -10 -28 0 -9 -9 -22 -20
-28 -15 -8 -19 -17 -14 -34 4 -19 0 -27 -21 -38 -34 -16 -57 -78 -50 -135 6
-53 -16 -106 -49 -121 -18 -8 -26 -19 -26 -37 0 -14 -4 -25 -10 -25 -16 0 -34
-43 -32 -76 3 -32 -19 -61 -38 -49 -12 7 -13 -1 -14 -70 -1 -47 -3 -50 -29
-53 -20 -2 -31 -12 -39 -30 -5 -15 -17 -39 -25 -55 -13 -25 -13 -28 4 -34 10
-4 513 -8 1118 -8 846 0 1109 3 1141 12 95 29 182 116 210 210 11 38 14 216
14 977 l0 931 -48 33 c-26 18 -71 41 -98 52 -54 20 -139 67 -246 137 -37 24
-161 100 -275 169 -114 69 -219 138 -233 155 -14 16 -34 29 -46 29 -12 0 -36
11 -55 25 -19 13 -45 29 -59 35 -23 11 -24 13 -8 24 12 9 14 16 7 23 -16 16
-4 30 35 43 46 15 86 -1 86 -34 0 -13 9 -34 19 -47 17 -21 22 -22 40 -12 11 7
29 13 40 13 28 0 44 49 36 110 -6 42 -4 50 9 50 9 0 16 -6 16 -12 1 -7 10 -24
21 -38 20 -24 21 -24 35 -5 8 10 14 39 14 64 l-1 46 -17 -27 c-18 -30 -42 -37
-42 -13 0 24 -51 67 -72 62 -20 -6 -48 26 -48 53 0 9 -15 31 -34 49 -38 37
-57 110 -36 136 10 12 16 10 36 -14 13 -16 24 -34 24 -40 0 -19 30 -71 40 -71
17 0 11 43 -15 105 -31 75 -31 97 -3 138 13 18 23 33 24 35 0 1 22 -1 48 -4
29 -4 60 -17 77 -32 56 -47 39 -15 -31 57 -47 48 -70 80 -70 96 0 35 22 127
35 147 13 19 7 81 -19 203 -22 99 -90 247 -139 299 -20 21 -37 47 -37 56 0 10
-8 28 -19 41 -14 19 -20 50 -25 139 -9 135 -30 193 -101 266 -44 46 -72 54
-47 13 7 -11 23 -39 35 -62 11 -23 25 -45 30 -48 12 -8 0 -29 -16 -29 -7 0
-30 25 -52 56 -22 30 -46 59 -54 64 -8 4 -16 22 -17 39 -2 29 -66 117 -86 120
-17 2 -7 -49 11 -61 11 -8 22 -26 25 -40 12 -68 98 -166 169 -190 31 -11 42
-28 63 -96 28 -94 11 -152 -30 -97 -37 52 -127 145 -138 145 -12 0 -82 72
-102 103 -9 15 -29 33 -43 40 -27 12 -83 117 -83 157 0 12 -13 39 -29 59 -32
41 -48 91 -32 101 7 4 3 15 -11 30 -13 14 -24 36 -25 50 -3 53 -11 79 -32 105
-11 15 -21 34 -21 42 0 8 -11 29 -25 47 -14 18 -25 37 -25 42 0 5 -14 36 -30
68 -17 32 -30 74 -30 92 0 18 -4 36 -10 39 -6 3 -10 -4 -10 -17 0 -13 -4 -29
-8 -36 -12 -19 -47 24 -66 81 -20 61 -20 66 4 60 13 -3 20 0 20 8 -1 27 -39
98 -64 120 -19 17 -23 26 -16 40 7 12 5 29 -6 54 -8 20 -14 56 -13 81 2 36 -2
49 -24 72 -15 15 -27 34 -27 40 0 18 -39 92 -48 92 -4 0 -15 12 -24 28 l-16
27 39 -3 c30 -3 39 -1 39 11 0 9 -4 18 -9 21 -10 6 -21 53 -14 60 3 2 30 -4
60 -15 31 -10 75 -19 97 -19 l41 0 -30 25 c-24 20 -37 24 -65 19 -27 -4 -48 2
-90 25 -46 24 -55 33 -52 54 2 20 -8 33 -50 63 -29 22 -59 38 -68 36 -23 -4
-74 53 -66 74 7 19 -21 57 -36 48 -10 -6 -39 57 -31 69 3 5 10 4 16 -2 6 -6
22 -11 35 -11 20 0 22 4 16 23 -3 12 -11 28 -16 35 -12 14 -32 16 -23 2 3 -5
1 -10 -6 -10 -8 0 -9 10 -5 30 3 17 2 39 -3 48 -5 9 -15 37 -22 62 -7 25 -16
47 -19 50 -3 3 -11 17 -17 33 -7 15 -20 27 -28 27 -9 0 -13 5 -10 10 4 6 10 8
15 5 9 -5 -23 59 -39 78 -5 7 -12 35 -14 63 -2 30 -12 63 -25 80 -26 37 -122
206 -122 215 0 4 -9 11 -20 14 -12 4 -20 15 -20 29 0 17 -9 27 -30 36 -34 14
-46 41 -31 69 15 28 14 31 -12 31 -28 0 -52 24 -61 63 -5 20 -19 33 -51 48
-25 12 -48 25 -51 30 -3 5 -17 9 -32 9 -35 0 -55 32 -47 71 6 25 0 41 -32 87
-21 31 -47 75 -57 97 -18 37 -92 153 -106 165 -3 3 -20 29 -38 58 -18 29 -51
77 -74 106 -24 30 -54 70 -68 90 -47 68 -255 287 -390 412 -30 27 -86 72 -125
99 -38 26 -83 58 -100 71 -49 36 -369 203 -432 225 -81 28 -201 56 -318 74
-55 9 -117 22 -138 30 -20 8 -43 14 -50 13 -6 -1 -30 -3 -52 -5z m-595 -923
c0 -5 20 -10 45 -10 39 0 49 -5 85 -42 22 -23 40 -47 41 -53 3 -58 10 -79 33
-100 14 -13 26 -31 26 -39 0 -21 45 -50 68 -44 21 6 42 -20 42 -52 0 -11 5
-20 10 -20 6 0 10 -7 10 -15 0 -8 7 -15 16 -15 9 0 18 -9 21 -20 3 -11 14 -20
25 -20 10 0 28 -9 40 -20 l22 -20 -23 0 c-18 0 -22 -5 -19 -22 2 -13 10 -24
18 -24 8 -1 19 -2 23 -3 4 0 3 -9 -2 -19 -14 -27 2 -45 50 -57 37 -8 44 -15
51 -42 8 -32 37 -46 39 -20 1 6 5 -8 10 -32 10 -53 15 -58 39 -44 14 10 19 9
24 -2 3 -9 0 -15 -8 -15 -7 0 -23 -11 -36 -24 -17 -19 -29 -24 -50 -20 -21 5
-30 0 -43 -20 -14 -21 -22 -24 -49 -19 -35 7 -58 -14 -58 -52 0 -15 -10 -25
-35 -34 -29 -10 -35 -17 -35 -42 0 -16 -4 -29 -10 -29 -15 0 -12 -30 3 -36 18
-6 19 -94 2 -94 -16 0 -39 -111 -31 -145 4 -14 2 -34 -3 -44 -18 -34 -33 -152
-21 -166 8 -10 8 -20 0 -36 -10 -17 -10 -30 0 -58 8 -24 8 -49 2 -76 -4 -22
-7 -96 -6 -165 3 -122 13 -165 41 -183 7 -4 13 -15 13 -23 0 -8 16 -22 35 -30
19 -8 35 -20 35 -26 0 -19 -43 -78 -62 -83 -16 -6 -63 -61 -67 -80 -2 -5 -7
-15 -12 -21 -7 -8 -1 -19 17 -33 15 -12 30 -21 34 -21 4 0 20 -12 35 -27 23
-23 26 -33 21 -65 -7 -45 6 -56 31 -25 23 30 59 40 77 21 8 -8 21 -14 29 -14
16 0 27 -36 26 -85 0 -16 0 -49 0 -72 0 -40 -1 -42 -47 -64 -26 -12 -58 -31
-71 -41 -17 -13 -41 -18 -82 -18 -48 0 -74 -7 -141 -39 -46 -22 -95 -43 -110
-47 -16 -3 -28 -10 -28 -15 0 -5 -6 -9 -13 -9 -7 0 -26 -13 -42 -30 -16 -17
-44 -33 -64 -36 -32 -6 -38 -3 -67 30 -32 38 -54 41 -54 8 0 -9 7 -26 15 -36
8 -11 15 -28 15 -37 0 -20 48 -61 64 -56 6 2 13 14 16 27 6 27 33 37 97 39 23
1 63 10 89 22 57 24 132 19 175 -12 14 -10 44 -24 67 -31 23 -7 42 -17 42 -22
0 -6 -12 -22 -26 -37 l-27 -28 29 -24 c16 -14 33 -24 37 -23 12 2 36 -45 37
-71 0 -14 -6 -23 -14 -23 -18 0 -30 -33 -21 -59 8 -25 121 -55 161 -42 44 14
110 20 124 11 8 -5 10 -15 5 -26 -4 -11 -10 -68 -11 -129 -3 -82 -7 -111 -18
-117 -8 -5 -18 -23 -22 -40 -9 -43 -34 -77 -57 -78 -10 0 -21 -10 -26 -22 -5
-13 -21 -34 -35 -47 -14 -14 -26 -32 -26 -41 0 -18 -22 -45 -65 -79 -16 -12
-25 -24 -22 -27 13 -14 89 -24 180 -24 l97 0 15 -32 c8 -18 17 -55 20 -81 4
-28 15 -57 26 -68 10 -10 19 -22 19 -25 0 -4 12 -18 26 -31 19 -18 23 -27 15
-37 -8 -9 -4 -21 14 -47 14 -18 23 -39 21 -46 -3 -7 -1 -13 4 -13 6 0 10 -5
10 -11 0 -6 11 -20 25 -31 14 -11 25 -25 25 -33 0 -7 5 -15 11 -17 6 -2 12
-19 14 -38 1 -24 12 -45 34 -66 20 -20 31 -41 31 -60 0 -32 39 -93 40 -61 0 9
4 17 8 17 19 0 21 -15 6 -37 -12 -19 -13 -27 -3 -39 6 -8 9 -27 6 -43 -4 -20
-2 -31 8 -35 20 -7 19 -19 -6 -47 l-21 -24 32 -3 c19 -2 39 3 49 12 11 10 36
16 64 16 26 0 47 5 47 11 0 5 4 7 10 4 11 -7 -15 -54 -37 -68 -20 -12 -16 -29
14 -54 l26 -23 -11 -106 c-8 -71 -9 -112 -2 -124 14 -26 13 -30 -10 -30 -17 0
-20 -7 -20 -45 0 -25 5 -45 10 -45 6 0 10 -20 10 -44 0 -41 -2 -45 -27 -48
-25 -3 -28 -7 -31 -47 -2 -27 1 -47 9 -52 10 -6 10 -11 0 -22 -10 -13 -7 -16
19 -22 34 -7 41 -25 9 -25 -13 0 -18 -4 -13 -12 7 -12 16 -68 11 -68 -50 -10
-115 -9 -139 1 -25 10 -29 17 -26 41 3 19 0 28 -9 28 -18 0 -17 77 2 114 17
32 20 66 5 66 -6 0 -10 67 -10 182 0 155 -2 184 -17 200 -9 10 -22 18 -30 18
-7 0 -13 7 -13 15 0 8 -9 15 -20 15 -11 0 -20 5 -20 10 0 6 9 10 20 10 11 0
20 5 20 10 0 6 20 10 45 10 33 0 45 4 45 15 0 11 -12 15 -44 15 -25 0 -48 5
-51 10 -12 19 -27 10 -23 -14 6 -30 -11 -39 -43 -22 -15 7 -24 20 -24 36 0 20
-6 26 -27 28 -16 2 -28 9 -28 15 0 7 -14 18 -31 26 -17 7 -39 28 -49 45 -26
43 -40 57 -50 51 -4 -3 -21 11 -37 31 -15 20 -47 55 -69 78 -25 24 -45 55 -49
75 -4 19 -18 44 -32 55 -31 27 -54 90 -46 127 6 33 -44 183 -88 264 -16 29
-29 60 -29 68 0 9 -4 17 -9 19 -4 2 -17 26 -27 54 -19 50 -62 93 -308 304
-255 217 -334 317 -480 605 -31 61 -70 135 -87 165 -95 167 -132 290 -143 469
-5 80 -4 92 9 87 10 -3 15 1 15 13 0 10 7 32 15 47 8 16 15 46 15 67 0 23 5
37 13 37 6 0 25 28 41 63 16 34 40 76 53 94 19 25 23 39 18 66 -6 30 -3 37 25
60 32 27 56 32 122 21 28 -5 37 -12 41 -31 4 -19 -1 -27 -22 -35 -42 -17 -9
-20 50 -4 88 23 224 83 264 116 7 6 13 27 13 46 0 21 10 51 26 74 30 45 31 54
14 112 -14 45 -99 138 -127 138 -19 0 -79 19 -113 35 -24 12 -30 12 -42 -1 -8
-8 -30 -14 -48 -15 l-33 -1 29 -12 29 -13 -29 -7 c-16 -4 -42 -13 -59 -21 -16
-7 -63 -27 -103 -44 -71 -31 -119 -40 -107 -21 7 11 -21 70 -34 70 -4 0 -20
11 -35 25 -19 18 -26 34 -26 62 0 36 3 39 58 64 52 25 68 27 197 28 77 1 167
6 200 13 33 6 79 10 103 9 44 -1 44 -1 37 29 -5 25 -3 30 12 30 13 0 9 6 -14
21 -18 11 -39 22 -47 23 -8 1 -24 10 -35 20 -15 14 -38 17 -118 18 -131 2
-239 -6 -290 -21 -64 -18 -87 -2 -78 52 3 23 8 56 10 72 7 55 26 189 40 285
14 95 60 226 106 306 32 53 99 144 108 144 4 0 15 14 24 30 17 27 73 63 104
65 7 0 28 16 47 35 50 51 86 74 126 81 57 10 80 10 80 -1z m540 -541 c0 -18
-2 -19 -15 -9 -8 7 -15 16 -15 21 0 5 7 9 15 9 9 0 15 -9 15 -21z m-1703 -505
c-2 -35 -7 -67 -11 -71 -4 -4 -5 23 -2 60 3 41 1 67 -5 67 -6 0 -7 5 -4 10 16
25 27 -7 22 -66z m1563 -105 c0 -5 -7 -9 -15 -9 -15 0 -20 12 -9 23 8 8 24 -1
24 -14z m-1580 -123 c0 -8 -5 -18 -11 -22 -14 -8 -33 11 -25 25 10 16 36 13
36 -3z m2135 -36 c-17 -19 -12 -69 9 -82 6 -4 8 -9 5 -12 -6 -7 -59 38 -59 50
0 20 41 75 51 69 7 -5 5 -13 -6 -25z m-1345 -146 c0 -18 -47 -67 -80 -84 -38
-19 -70 -26 -70 -15 0 18 33 66 52 76 40 22 98 35 98 23z m-920 -14 c0 -5 -4
-10 -10 -10 -5 0 -10 5 -10 10 0 6 5 10 10 10 6 0 10 -4 10 -10z m1208 -117
c-4 -36 -38 -45 -38 -10 0 27 7 37 27 37 10 0 13 -9 11 -27z m-121 -9 c-9 -9
-28 6 -21 18 4 6 10 6 17 -1 6 -6 8 -13 4 -17z m-152 6 c3 -5 -1 -10 -9 -10
-9 0 -16 5 -16 10 0 6 4 10 9 10 6 0 13 -4 16 -10z m-35 -9 c0 -6 -4 -13 -10
-16 -17 -11 -11 -32 20 -65 36 -38 28 -56 -19 -45 -25 5 -33 13 -41 47 -9 32
-8 44 5 64 15 23 45 33 45 15z m-152 -354 c2 -10 -3 -17 -12 -17 -9 0 -16 -8
-16 -19 0 -30 -11 -51 -26 -51 -8 0 -14 4 -14 10 0 16 23 60 32 60 4 0 8 9 8
21 0 24 23 21 28 -4z m-127 -244 c-17 -31 -26 53 -10 100 l14 42 3 -63 c2 -34
-1 -70 -7 -79z m4029 -264 c6 -23 9 -44 5 -47 -10 -10 -23 12 -30 51 -10 51
11 49 25 -4z m24 -75 c4 -9 4 -19 2 -21 -8 -8 -26 8 -26 23 0 19 16 18 24 -2z
m-5061 -313 c-4 -9 -10 -21 -15 -28 -5 -6 -13 -24 -18 -40 l-8 -28 -1 27 c-1
15 4 30 9 33 6 4 8 16 5 26 -8 24 14 56 26 38 4 -7 5 -19 2 -28z m134 -105
c-4 -9 -11 -16 -16 -16 -17 0 -22 36 -10 66 l12 29 10 -32 c5 -18 7 -39 4 -47z
m5173 35 c12 -23 13 -71 2 -71 -18 0 -32 26 -32 57 0 37 14 43 30 14z m151
-138 c15 -23 19 -43 16 -63 -4 -16 -3 -30 1 -33 4 -2 1 -2 -5 -1 -21 5 -34
-31 -22 -63 9 -25 11 -26 21 -10 9 17 11 17 28 2 16 -15 18 -15 24 1 5 13 9
14 20 5 24 -20 45 -156 27 -174 -8 -8 -11 -6 -11 6 0 9 -5 17 -11 17 -7 0 -27
17 -45 38 -38 42 -46 27 -17 -33 9 -19 13 -38 10 -42 -14 -13 -39 25 -44 68
-7 46 -43 119 -43 87 0 -30 -25 -20 -38 14 -15 41 -1 59 27 34 12 -11 21 -13
25 -7 9 13 -4 61 -15 61 -5 0 -9 11 -9 25 0 14 5 25 10 25 7 0 8 19 4 53 -7
48 -6 51 9 38 9 -7 26 -29 38 -48z m-5364 9 c10 -17 8 -18 -13 -14 -24 4 -30
13 -17 25 10 11 17 8 30 -11z m5232 -64 c34 -46 38 -58 18 -58 -18 0 -57 55
-57 80 0 28 4 26 39 -22z m221 -318 c0 -5 -4 -10 -9 -10 -6 0 -13 5 -16 10 -3
6 1 10 9 10 9 0 16 -4 16 -10z m48 -52 c-6 -18 -28 -21 -28 -4 0 9 7 16 16 16
9 0 14 -5 12 -12z m-5548 -163 c-7 -8 -16 -12 -21 -9 -13 8 -1 24 18 24 13 0
13 -3 3 -15z m75 -5 c-3 -5 -11 -10 -16 -10 -6 0 -7 5 -4 10 3 6 11 10 16 10
6 0 7 -4 4 -10z m5279 -46 c3 -9 6 -25 6 -36 0 -20 -1 -21 -20 -3 -23 21 -27
55 -6 55 8 0 17 -7 20 -16z m94 -44 c23 -31 28 -55 13 -64 -13 -8 -40 27 -47
62 -8 40 6 41 34 2z m128 2 c18 -13 107 -143 101 -149 -7 -7 -22 7 -81 80 -44
54 -55 77 -38 77 4 0 12 -4 18 -8z m-56 -174 c0 -17 -3 -18 -14 -8 -8 6 -12
18 -9 26 7 19 23 7 23 -18z m334 -3 c24 -19 52 -35 63 -35 23 0 98 -74 89 -88
-3 -5 6 -27 20 -48 21 -31 24 -42 15 -56 -7 -12 -8 -25 -3 -35 6 -9 5 -26 -1
-43 -11 -30 -4 -60 14 -60 7 0 9 10 6 27 -12 64 11 67 91 13 50 -35 60 -47 74
-92 10 -29 19 -82 22 -117 4 -35 11 -70 18 -78 9 -11 9 -16 0 -22 -9 -5 -7
-18 8 -46 24 -47 27 -127 5 -149 -8 -8 -15 -19 -15 -25 0 -25 -29 -19 -138 32
-64 29 -137 60 -161 67 -24 8 -45 20 -48 27 -3 7 -15 10 -31 7 -15 -3 -40 -1
-56 5 -28 11 -28 13 -24 76 4 69 14 90 29 63 5 -9 17 -25 27 -34 16 -17 17
-17 20 4 2 13 -9 37 -28 61 -29 36 -32 45 -29 103 1 34 -1 70 -5 79 -4 10 -6
23 -4 31 1 7 -7 27 -20 45 -12 17 -22 35 -22 41 0 5 -6 15 -14 21 -8 7 -23 30
-34 51 -16 32 -17 42 -6 50 16 14 43 -1 106 -57 53 -48 93 -61 64 -20 -9 12
-20 31 -25 42 -9 22 -70 90 -80 90 -3 1 -16 7 -28 15 -26 17 -31 40 -9 40 8 0
18 5 21 11 4 6 1 9 -7 7 -7 -2 -15 0 -16 5 -6 21 1 27 34 27 26 0 47 -9 78
-35z m-188 -26 c17 -34 8 -54 -18 -44 -15 6 -28 34 -28 63 0 24 30 12 46 -19z
m-5662 -123 c-3 -9 -10 -16 -15 -16 -14 0 -11 28 4 33 16 6 19 3 11 -17z
m6110 -102 c9 -3 13 -10 10 -15 -8 -14 -31 -11 -38 6 -6 16 3 19 28 9z m-5900
-188 c-8 -20 -23 -17 -38 7 -8 13 -7 20 4 27 20 12 43 -11 34 -34z m66 -176
c0 -5 -7 -10 -15 -10 -8 0 -15 5 -15 10 0 6 7 10 15 10 8 0 15 -4 15 -10z
m-80 -110 c0 -5 -4 -10 -10 -10 -5 0 -10 5 -10 10 0 6 5 10 10 10 6 0 10 -4
10 -10z m5680 -115 c7 -9 10 -18 7 -22 -8 -7 -37 15 -37 28 0 14 16 11 30 -6z
m-75 -26 c33 -20 35 -25 29 -53 -8 -40 -7 -39 -47 -32 -47 9 -68 54 -44 94 11
17 20 15 62 -9z m-5695 -26 c0 -16 -7 -41 -15 -57 -20 -38 -20 -39 15 -31 19
4 30 3 30 -4 0 -6 -20 -11 -46 -11 -37 0 -45 3 -40 15 3 9 -3 20 -14 28 -19
11 -19 13 17 49 46 45 53 46 53 11z m2830 23 c0 -3 -4 -8 -10 -11 -5 -3 -10
-1 -10 4 0 6 5 11 10 11 6 0 10 -2 10 -4z m3067 -23 l22 -28 1 28 c0 15 3 27
7 27 14 0 73 -64 73 -80 0 -9 14 -29 30 -45 34 -32 37 -47 15 -65 -11 -9 -12
-17 -4 -32 6 -11 8 -22 6 -24 -10 -10 -72 13 -72 27 0 8 -8 19 -17 24 -25 15
-68 76 -68 96 0 10 -5 21 -10 24 -6 4 -8 15 -5 26 8 23 -7 25 -25 4 -17 -20
-40 -2 -33 25 8 30 53 26 80 -7z m183 -99 c0 -40 -12 -38 -34 6 -14 29 -14 30
10 30 21 0 24 -5 24 -36z m-300 16 c0 -5 -9 -10 -21 -10 -11 0 -17 5 -14 10 3
6 13 10 21 10 8 0 14 -4 14 -10z m78 -37 c18 -16 35 -35 36 -43 2 -8 7 -23 11
-33 9 -23 -6 -40 -31 -35 -12 2 -19 13 -20 28 -1 14 -2 28 -3 33 0 4 -1 10 -2
15 0 4 -6 14 -13 22 -39 46 -26 53 22 13z m20 -295 c-3 -7 -24 -14 -49 -16
-28 -2 -40 0 -34 6 21 21 89 28 83 10z m-2248 -40 c0 -35 -16 -56 -31 -41 -9
9 -8 18 5 37 20 32 26 33 26 4z m2472 -75 c20 -17 23 -49 8 -73 -8 -13 -13
-12 -37 6 -32 24 -40 49 -23 69 16 19 29 19 52 -2z m-2532 -17 c0 -16 7 -27
20 -31 16 -5 18 -10 10 -25 -5 -10 -7 -26 -4 -34 5 -13 -1 -16 -26 -16 -19 0
-39 -7 -47 -17 -13 -17 -13 -17 -11 2 2 14 -4 21 -19 23 -25 4 -30 17 -10 29
6 4 21 24 31 43 30 54 56 66 56 26z m2373 -37 c-6 -6 -9 -18 -6 -26 5 -13 -1
-14 -38 -8 -24 3 -51 9 -60 11 -9 3 -19 -2 -22 -10 -5 -12 -12 -13 -37 -5 -48
17 -35 28 33 27 34 0 69 2 77 5 52 19 68 21 53 6z m-44 -58 c20 -13 4 -51 -21
-51 -27 0 -98 31 -98 43 0 5 18 7 40 6 21 -2 42 0 46 4 9 9 16 9 33 -2z
m-3125 -216 c-4 -8 -10 -15 -15 -15 -5 0 -9 7 -9 15 0 8 7 15 15 15 9 0 12 -6
9 -15z m1644 -31 c-5 -28 -28 -29 -28 -1 0 13 3 27 7 31 10 10 25 -10 21 -30z
m-124 -90 c3 -8 2 -12 -4 -9 -6 3 -10 10 -10 16 0 14 7 11 14 -7z m-1506 -14
c9 -15 23 -20 57 -20 27 0 45 -5 45 -11 0 -8 -17 -10 -51 -7 -37 4 -52 2 -56
-8 -7 -18 -47 -18 -83 1 -31 16 -34 23 -24 49 10 25 95 22 112 -4z m-1827
-173 c-8 -8 -11 -7 -11 4 0 20 13 34 18 19 3 -7 -1 -17 -7 -23z m-918 -9 c45
-60 46 -268 2 -268 -25 0 -37 27 -24 51 6 12 12 51 14 87 2 54 -1 68 -18 85
-25 25 -33 77 -12 77 7 0 25 -15 38 -32z m1173 -16 c-4 -11 -13 -23 -21 -26
-10 -3 -12 0 -8 12 15 41 41 54 29 14z m-280 -46 c-15 -37 -36 -48 -36 -21 0
20 43 80 48 67 2 -6 -4 -26 -12 -46z m3709 -36 c-3 -5 -11 -10 -16 -10 -6 0
-7 5 -4 10 3 6 11 10 16 10 6 0 7 -4 4 -10z m-1105 -53 c0 -5 -4 -5 -10 -2 -5
3 -10 14 -10 23 0 15 2 15 10 2 5 -8 10 -19 10 -23z m-3112 -26 c29 -25 28
-28 -8 -35 -16 -3 -43 -9 -60 -12 -37 -8 -38 2 -3 38 31 33 40 34 71 9z m247
-41 c-3 -5 -11 -10 -16 -10 -6 0 -7 5 -4 10 3 6 11 10 16 10 6 0 7 -4 4 -10z
m-265 -30 c-20 -13 -43 -13 -35 0 3 6 16 10 28 10 18 0 19 -2 7 -10z m-191
-49 c-13 -11 -28 -17 -32 -14 -13 8 14 33 35 33 19 0 19 -1 -3 -19z m1082
-163 c-2 -21 -7 -38 -11 -38 -16 0 -22 90 -8 128 l13 37 5 -45 c3 -25 3 -62 1
-82z m-520 -71 c-11 -29 -31 -45 -31 -25 0 16 30 61 36 55 3 -2 0 -16 -5 -30z
m499 -52 c0 -8 -4 -15 -10 -15 -5 0 -10 7 -10 15 0 8 5 15 10 15 6 0 10 -7 10
-15z m-1070 -105 c0 -5 -4 -10 -10 -10 -5 0 -10 5 -10 10 0 6 5 10 10 10 6 0
10 -4 10 -10z m1827 -6 c-3 -3 -12 -4 -19 -1 -8 3 -5 6 6 6 11 1 17 -2 13 -5z
m-1813 -99 c-11 -17 -20 -23 -27 -16 -6 6 -2 20 12 39 11 17 22 36 22 44 1 7
4 1 6 -14 2 -15 -3 -38 -13 -53z m4730 24 c-3 -5 -10 -7 -15 -3 -5 3 -7 10 -3
15 3 5 10 7 15 3 5 -3 7 -10 3 -15z m-2327 -31 c-3 -8 -6 -5 -6 6 -1 11 2 17
5 13 3 -3 4 -12 1 -19z m-2427 -37 c0 -6 -4 -13 -10 -16 -5 -3 -10 1 -10 9 0
9 5 16 10 16 6 0 10 -4 10 -9z m3330 -24 c0 -8 -11 -19 -25 -25 -31 -14 -32
-6 -3 19 25 23 28 23 28 6z m-2900 -98 c0 -44 -3 -60 -12 -57 -15 5 -18 41 -6
86 13 48 18 39 18 -29z m1937 39 c-3 -8 -6 -5 -6 6 -1 11 2 17 5 13 3 -3 4
-12 1 -19z m-2033 -154 c9 -24 7 -34 -8 -34 -13 0 -26 20 -26 41 0 15 27 10
34 -7z m363 -111 c4 -11 -64 -39 -73 -30 -3 3 -1 14 4 24 12 21 63 26 69 6z
m-94 -38 c-4 -15 -36 -12 -41 3 -3 9 3 13 19 10 13 -1 23 -7 22 -13z m117 -5
c0 -5 -10 -10 -22 -10 -19 0 -20 2 -8 10 19 13 30 13 30 0z m120 0 c0 -5 -7
-10 -16 -10 -8 0 -12 5 -9 10 3 6 10 10 16 10 5 0 9 -4 9 -10z m-305 -40 c3
-5 1 -10 -4 -10 -6 0 -11 5 -11 10 0 6 2 10 4 10 3 0 8 -4 11 -10z m259 -5
c-6 -16 -24 -21 -24 -7 0 11 11 22 21 22 5 0 6 -7 3 -15z m2894 0 c-2 -9 8
-21 21 -28 30 -15 62 -92 55 -133 -4 -20 0 -35 10 -43 9 -8 16 -23 16 -35 0
-12 5 -27 12 -34 6 -6 8 -15 4 -19 -4 -4 -11 -1 -15 6 -5 8 -14 10 -21 6 -10
-6 -9 -11 4 -21 18 -13 14 -34 -6 -34 -17 0 -108 -81 -108 -96 0 -8 -7 -14
-16 -14 -10 0 -14 -6 -10 -15 10 -27 -21 -16 -48 16 -31 37 -33 49 -6 56 14 4
17 9 11 17 -5 6 -12 27 -16 46 -4 19 -13 44 -21 54 -11 16 -9 24 12 55 13 19
24 42 24 49 0 7 4 11 9 8 12 -8 20 39 10 57 -6 9 -2 24 11 40 11 14 20 29 20
33 0 11 32 44 42 44 5 0 8 -7 6 -15z m-3128 -25 c0 -5 -2 -10 -4 -10 -3 0 -8
5 -11 10 -3 6 -1 10 4 10 6 0 11 -4 11 -10z m5180 -204 c0 -12 6 -28 12 -34
10 -10 10 -15 -2 -22 -8 -5 -21 -10 -28 -10 -18 0 -27 29 -13 43 6 6 11 22 11
35 0 13 4 20 10 17 6 -3 10 -16 10 -29z m3 -239 c-3 -5 -10 -4 -15 1 -6 6 -7
16 -3 22 6 9 9 9 16 -1 4 -7 5 -17 2 -22z m-293 -327 c0 -5 -4 -10 -10 -10 -5
0 -10 5 -10 10 0 6 5 10 10 10 6 0 10 -4 10 -10z m0 -69 c0 -12 -29 -35 -36
-28 -11 10 5 37 21 37 8 0 15 -4 15 -9z"/>
<path d="M6138 7865 c-3 -3 -3 -17 0 -30 5 -30 37 -34 45 -6 7 28 -26 54 -45
36z"/>
<path d="M6320 7700 c0 -5 5 -10 10 -10 6 0 10 5 10 10 0 6 -4 10 -10 10 -5 0
-10 -4 -10 -10z"/>
<path d="M5871 6071 l-24 -19 22 -28 c39 -50 94 -58 130 -20 28 30 22 42 -33
67 -51 23 -65 23 -95 0z"/>
<path d="M6860 2870 c0 -5 5 -10 10 -10 6 0 10 5 10 10 0 6 -4 10 -10 10 -5 0
-10 -4 -10 -10z"/>
<path d="M10122 3951 c19 -31 40 -36 36 -8 -2 14 -11 23 -26 25 -21 3 -22 2
-10 -17z"/>
<path d="M10200 3890 c0 -7 24 -20 36 -20 13 0 1 19 -16 23 -11 3 -20 2 -20
-3z"/>
<path d="M8082 1008 c6 -18 28 -21 28 -4 0 9 -7 16 -16 16 -9 0 -14 -5 -12
-12z"/>
<path d="M8936 7483 c15 -27 31 -52 34 -58 4 -5 17 -37 28 -70 55 -158 61
-165 38 -43 -22 114 -78 218 -119 218 -4 0 4 -21 19 -47z"/>
<path d="M9047 7157 c-5 -15 26 -153 37 -165 9 -9 7 50 -4 109 -11 57 -24 79
-33 56z"/>
<path d="M9495 6140 c3 -5 8 -10 11 -10 2 0 4 5 4 10 0 6 -5 10 -11 10 -5 0
-7 -4 -4 -10z"/>
<path d="M9506 6108 c-15 -20 -14 -24 6 -45 37 -40 48 -89 48 -230 0 -74 4
-133 9 -133 5 0 17 21 27 46 15 39 15 47 3 54 -11 7 -11 12 -1 22 6 6 12 30
13 53 1 54 13 93 23 77 4 -6 14 -12 23 -12 11 0 7 10 -15 34 -17 19 -33 43
-36 54 -4 10 -22 26 -42 36 -28 13 -35 21 -31 36 7 29 -9 34 -27 8z"/>
<path d="M9877 5054 c-9 -10 15 -54 30 -54 16 0 16 2 1 35 -11 25 -19 30 -31
19z"/>
<path d="M9814 4815 c10 -8 24 -11 29 -8 6 4 2 10 -9 14 -31 12 -40 9 -20 -6z"/>
<path d="M9880 4780 c0 -5 5 -10 10 -10 6 0 10 5 10 10 0 6 -4 10 -10 10 -5 0
-10 -4 -10 -10z"/>
<path d="M3874 4595 c-8 -13 -13 -29 -9 -35 4 -6 2 -17 -5 -25 -6 -8 -7 -16
-2 -19 6 -3 14 0 19 7 11 13 33 74 33 88 0 17 -20 8 -36 -16z"/>
<path d="M4060 4538 c-11 -12 -18 -23 -16 -25 6 -7 45 20 50 34 8 20 -11 15
-34 -9z"/>
<path d="M4101 3676 c-8 -10 -9 -16 -1 -21 5 -3 13 1 16 10 9 22 -1 29 -15 11z"/>
<path d="M3820 3644 c-11 -12 -10 -18 5 -32 17 -16 17 -16 12 6 -3 12 -1 22 4
22 5 0 9 5 9 10 0 15 -16 12 -30 -6z"/>
<path d="M3754 3502 c-12 -9 -25 -27 -28 -39 -4 -11 -18 -24 -31 -27 -14 -4
-25 -10 -25 -16 0 -17 35 -19 90 -6 44 11 49 14 24 15 -17 1 -33 3 -36 6 -10
10 4 55 17 55 7 0 15 7 19 15 7 20 -4 19 -30 -3z"/>
<path d="M3925 3470 c-3 -5 -2 -10 4 -10 5 0 13 5 16 10 3 6 2 10 -4 10 -5 0
-13 -4 -16 -10z"/>
<path d="M3856 3451 c-16 -17 -16 -19 6 -25 15 -4 27 0 35 11 25 33 -12 46
-41 14z"/>
<path d="M3560 3112 c-59 -115 -80 -172 -62 -172 9 0 82 168 82 188 0 6 4 12
9 12 7 0 23 51 17 57 -1 1 -22 -37 -46 -85z"/>
<path d="M10549 3113 c-1 -10 -3 -35 -5 -55 -2 -21 1 -38 6 -38 6 0 10 15 10
33 0 17 3 42 6 55 4 13 2 22 -5 22 -6 0 -12 -8 -12 -17z"/>
<path d="M10400 3096 c0 -9 5 -16 10 -16 6 0 10 4 10 9 0 6 -4 13 -10 16 -5 3
-10 -1 -10 -9z"/>
<path d="M4150 2993 c0 -5 8 -17 16 -28 15 -20 16 -20 29 -1 8 10 12 23 9 27
-6 11 -54 12 -54 2z"/>
<path d="M3456 2883 c-15 -36 -56 -184 -56 -206 0 -28 29 21 45 75 9 35 24 80
31 101 26 71 10 96 -20 30z"/>
<path d="M10553 2885 c-3 -9 -3 -18 0 -21 9 -9 27 6 27 22 0 19 -19 18 -27 -1z"/>
<path d="M3375 2599 c-4 -6 -5 -12 -2 -15 2 -3 7 2 10 11 7 17 1 20 -8 4z"/>
<path d="M3354 2529 c-8 -13 -29 -91 -45 -169 -5 -25 -15 -65 -23 -90 -7 -25
-20 -65 -27 -90 -7 -25 -19 -56 -26 -70 -7 -14 -13 -34 -13 -46 0 -11 -10 -50
-21 -85 -12 -35 -27 -98 -34 -139 -7 -41 -20 -106 -29 -145 -14 -64 -32 -255
-20 -210 28 104 102 408 125 517 17 76 52 226 79 335 46 184 53 222 34 192z"/>
<path d="M7655 2310 c3 -5 8 -10 11 -10 2 0 4 5 4 10 0 6 -5 10 -11 10 -5 0
-7 -4 -4 -10z"/>
<path d="M6688 2183 c6 -2 18 -2 25 0 6 3 1 5 -13 5 -14 0 -19 -2 -12 -5z"/>
<path d="M6773 2174 c-7 -18 11 -39 26 -30 17 11 13 46 -4 46 -9 0 -18 -7 -22
-16z"/>
<path d="M4192 1933 c-13 -44 -2 -64 26 -47 21 14 27 50 12 70 -19 22 -26 17
-38 -23z"/>
<path d="M4120 1930 c0 -5 5 -10 10 -10 6 0 10 5 10 10 0 6 -4 10 -10 10 -5 0
-10 -4 -10 -10z"/>
<path d="M7700 1715 c0 -16 6 -25 16 -25 11 0 14 5 10 17 -4 9 -1 20 6 25 9 5
6 8 -9 8 -18 0 -23 -6 -23 -25z"/>
<path d="M9372 1695 c1 -38 4 -45 21 -45 16 0 17 3 7 15 -7 9 -10 27 -6 45 4
22 2 30 -8 30 -10 0 -14 -13 -14 -45z"/>
<path d="M3097 1443 c-8 -13 -20 -83 -13 -83 7 0 29 81 23 87 -3 2 -7 1 -10
-4z"/>
<path d="M4230 1410 c0 -5 5 -10 10 -10 6 0 10 5 10 10 0 6 -4 10 -10 10 -5 0
-10 -4 -10 -10z"/>
<path d="M4250 1300 c0 -5 5 -10 11 -10 5 0 7 5 4 10 -3 6 -8 10 -11 10 -2 0
-4 -4 -4 -10z"/>
<path d="M4268 1203 c7 -3 16 -2 19 1 4 3 -2 6 -13 5 -11 0 -14 -3 -6 -6z"/>
</g>
</svg>
